<svg xmlns="http://www.w3.org/2000/svg" width="34" height="34" viewBox="0 0 34 34">
  <g id="Github-Icon" transform="translate(-46 -1)">
    <circle id="Ellipse_4" data-name="Ellipse 4" cx="17" cy="17" r="17" transform="translate(46 1)"/>
    <path id="Path_58" data-name="Path 58" d="M11.918,33.967s1.2-.37,1.2-.828c0-.414-.022-1.787-.022-3.246-4.379.806-5.512-1.068-5.861-2.048a6.338,6.338,0,0,0-1.787-2.462c-.61-.327-1.482-1.133-.022-1.155A3.488,3.488,0,0,1,8.1,26.014a3.726,3.726,0,0,0,5.076,1.438,3.666,3.666,0,0,1,1.111-2.331c-3.878-.436-7.931-1.939-7.931-8.606a6.783,6.783,0,0,1,1.787-4.684,6.263,6.263,0,0,1,.174-4.619S9.783,6.754,13.116,9a16.433,16.433,0,0,1,8.715,0c3.333-2.266,4.793-1.787,4.793-1.787a6.263,6.263,0,0,1,.174,4.619,6.744,6.744,0,0,1,1.787,4.684c0,6.689-4.074,8.17-7.952,8.606a4.128,4.128,0,0,1,1.177,3.225c0,2.331-.022,4.2-.022,4.793,0,.458.327,1,1.2.828" transform="translate(46 -1)" fill="#fff" fill-rule="evenodd"/>
  </g>
</svg>
